<?xml version="1.0" standalone="no"?>
<!DOCTYPE svg PUBLIC "-//W3C//DTD SVG 20010904//EN"
 "http://www.w3.org/TR/2001/REC-SVG-20010904/DTD/svg10.dtd">
<svg version="1.0" xmlns="http://www.w3.org/2000/svg"
 width="1025.000000pt" height="1025.000000pt" viewBox="0 0 1025.000000 1025.000000"
 preserveAspectRatio="xMidYMid meet">
<metadata>
Created by potrace 1.11, written by Peter Selinger 2001-2013
</metadata>
<g transform="translate(0.000000,1025.000000) scale(0.100000,-0.100000)"
fill="#000000" stroke="none">
<path d="M0 5125 l0 -5125 5125 0 5125 0 0 5125 0 5125 -5125 0 -5125 0 0
-5125z m1580 1745 l0 -1620 -500 0 -500 0 0 1620 0 1620 500 0 500 0 0 -1620z
m2275 726 l610 -893 3 893 2 894 470 0 470 0 0 -1620 0 -1620 -469 0 -469 0
-609 891 -608 891 -3 -891 -2 -891 -470 0 -470 0 0 1620 0 1620 468 0 467 0
610 -894z m4039 870 c135 -20 253 -47 337 -79 288 -109 504 -306 650 -593 126
-248 176 -480 186 -860 17 -643 -103 -1018 -424 -1325 -188 -179 -348 -257
-652 -319 -188 -38 -250 -40 -1083 -40 l-818 0 0 1621 0 1621 848 -5 c704 -4
865 -8 956 -21z"/>
<path d="M7090 6874 l0 -886 258 5 c271 5 331 13 429 59 115 54 215 206 254
388 26 120 38 543 20 685 -30 226 -84 370 -173 455 -62 60 -175 120 -271 144
-79 19 -266 35 -414 36 l-103 0 0 -886z"/>
</g>
</svg>
